<svg width="25" height="24" fill="none" xmlns="http://www.w3.org/2000/svg"><path d="M12.5 0C5.59 0 0 5.5 0 12.3c0 5.44 3.58 10.05 8.54 11.67.63.12.86-.26.86-.59 0-.29-.01-1.06-.02-2.09-3.48.74-4.21-1.65-4.21-1.65-.57-1.42-1.39-1.8-1.39-1.8-1.13-.76.09-.75.09-.75 1.25.09 1.91 1.27 1.91 1.27 1.12 1.88 2.93 1.34 3.64 1.02.11-.79.44-1.33.79-1.64-2.77-.31-5.69-1.37-5.69-6.08 0-1.35.48-2.44 1.29-3.3-.14-.31-.57-1.57.11-3.26 0 0 1.04-.33 3.43 1.26a12.108 12.108 0 0 1 6.25 0c2.38-1.59 3.43-1.26 3.43-1.26.67 1.69.25 2.95.12 3.26.8.86 1.28 1.95 1.28 3.3 0 4.72-2.92 5.77-5.7 6.07.44.37.84 1.12.84 2.27 0 1.65-.01 2.97-.01 3.37 0 .33.22.71.86.59 5-1.62 8.58-6.23 8.58-11.66C25 5.5 19.4 0 12.5 0Z" fill="#000"/></svg>